<svg width="123px" height="160px" viewBox="0 0 123 160" version="1.1" xmlns="http://www.w3.org/2000/svg" xmlns:xlink="http://www.w3.org/1999/xlink">
              <defs>
                  <polygon id="path-ci4eqfartd-1" points="0.605466667 -0.00266666667 34.276 -0.00266666667 34.276 33.6674667 0.605466667 33.6674667"></polygon>
                  <polygon id="path-ci4eqfartd-3" points="0.286266667 0.453466667 1.6196 0.453466667 1.6196 105.333333 0.286266667 105.333333"></polygon>
              </defs>
              <g id="Page-1" stroke="none" stroke-width="1" fill="none" fill-rule="evenodd">
                  <g id="Bespoke-training" transform="translate(-1040.000000, -5944.000000)">
                      <g id="Group-23" transform="translate(1034.000000, 5944.000000)">
                          <path d="M114.4724,54.2582667 L114.4724,114.404933 C114.4724,132.9916 103.325733,148.9916 87.3390667,156.058267 C84.3790667,157.364933 81.2590667,158.364933 78.0057333,159.0316 C75.0857333,159.618267 72.0590667,159.924933 68.9524,159.924933 C65.8457333,159.924933 62.8190667,159.618267 59.8990667,159.0316 C56.6457333,158.364933 53.5257333,157.364933 50.5657333,156.058267 C34.5790667,148.9916 23.4324,132.9916 23.4324,114.404933 L23.4324,54.2582667 C23.4324,29.1249333 43.8057333,8.73826667 68.9524,8.73826667 C81.5257333,8.73826667 92.9124,13.8316 101.139067,22.0716 C109.379067,30.3116 114.4724,41.6982667 114.4724,54.2582667" id="Fill-1" fill="#FB9E66"></path>
                          <path d="M103.322533,55.1228 C103.322533,74.1041333 87.9345333,89.4921333 68.9532,89.4921333 C49.9718667,89.4921333 34.5838667,74.1041333 34.5838667,55.1228 C34.5838667,36.1414667 49.9718667,20.7534667 68.9532,20.7534667 C87.9345333,20.7534667 103.322533,36.1414667 103.322533,55.1228" id="Fill-3" fill="#339989"></path>
                          <path d="M68.9528,9.17933333 C43.5794667,9.17933333 23.0088,29.7486667 23.0088,55.1233333 C23.0088,80.4966667 43.5794667,101.066 68.9528,101.066 C94.3274667,101.066 114.8968,80.4966667 114.8968,55.1233333 C114.8968,29.7486667 94.3274667,9.17933333 68.9528,9.17933333 M68.9528,10.5126667 C93.5514667,10.5126667 113.563467,30.5246667 113.563467,55.1233333 C113.563467,79.7206667 93.5514667,99.7326667 68.9528,99.7326667 C44.3554667,99.7326667 24.3421333,79.7206667 24.3421333,55.1233333 C24.3421333,30.5246667 44.3554667,10.5126667 68.9528,10.5126667" id="Fill-5" fill="#00C49A"></path>
                          <g id="Group-9" transform="translate(88.000000, 0.002667)">
                              <mask id="mask-ci4eqfartd-2" fill="white">
                                  <use xlink:href="#path-ci4eqfartd-1"></use>
                              </mask>
                              <g id="Clip-8"></g>
                              <path d="M16.1561333,12.9701333 L17.4401333,-0.0032 L18.7241333,12.9701333 C18.8588,14.3341333 19.9388,15.4141333 21.3028,15.5488 L34.2761333,16.8328 L21.3028,18.1168 C19.9388,18.2514667 18.8588,19.3314667 18.7241333,20.6954667 L17.4401333,33.6674667 L16.1561333,20.6954667 C16.0214667,19.3314667 14.9414667,18.2514667 13.5774667,18.1168 L0.605466667,16.8328 L13.5774667,15.5488 C14.9414667,15.4141333 16.0214667,14.3341333 16.1561333,12.9701333" id="Fill-7" fill="#339989" mask="url(#mask-ci4eqfartd-2)"></path>
                          </g>
                          <path d="M15.5513333,29.8081333 L16.8353333,16.8348 L18.1193333,29.8081333 C18.254,31.1721333 19.334,32.2521333 20.698,32.3868 L33.6713333,33.6708 L20.698,34.9548 C19.334,35.0894667 18.254,36.1694667 18.1193333,37.5334667 L16.8353333,50.5054667 L15.5513333,37.5334667 C15.4166667,36.1694667 14.3366667,35.0894667 12.9726667,34.9548 L0.000666666667,33.6708 L12.9726667,32.3868 C14.3366667,32.2521333 15.4166667,31.1721333 15.5513333,29.8081333" id="Fill-10" fill="#339989"></path>
                          <path d="M66.3988,47.4392 L68.9534667,21.6325333 L71.5068,47.4392 C71.7761333,50.1525333 73.9228,52.3005333 76.6361333,52.5685333 L102.4428,55.1232 L76.6361333,57.6765333 C73.9228,57.9458667 71.7761333,60.0925333 71.5068,62.8058667 L68.9534667,88.6125333 L66.3988,62.8058667 C66.1308,60.0925333 63.9828,57.9458667 61.2694667,57.6765333 L35.4628,55.1232 L61.2694667,52.5685333 C63.9828,52.3005333 66.1308,50.1525333 66.3988,47.4392" id="Fill-12" fill="#FB9E66"></path>
                          <path d="M59.8990667,113.004933 L59.8990667,159.0316 C56.6457333,158.364933 53.5257333,157.364933 50.5657333,156.058267 L50.5657333,113.004933 C50.5657333,93.2982667 39.5924,76.1116 23.4324,67.2182667 L23.4324,56.8182667 C44.9124,66.4182667 59.8990667,87.9916 59.8990667,113.004933" id="Fill-14" fill="#00C49A"></path>
                          <path d="M114.4724,56.8184 L114.4724,67.2184 C98.3124,76.1117333 87.3390667,93.2984 87.3390667,113.005067 L87.3390667,156.0584 C84.3790667,157.365067 81.2590667,158.365067 78.0057333,159.031733 L78.0057333,113.005067 C78.0057333,88.0050667 92.9924,66.4317333 114.4724,56.8184" id="Fill-16" fill="#00C49A"></path>
                          <path d="M78.0058667,130.565067 L78.0058667,159.031733 C75.0858667,159.6184 72.0592,159.925067 68.9525333,159.925067 C65.8458667,159.925067 62.8192,159.6184 59.8992,159.031733 L59.8992,130.565067 C59.8992,133.0584 60.9125333,135.325067 62.5525333,136.951733 C64.1925333,138.591733 66.4592,139.605067 68.9525333,139.605067 C73.9525333,139.605067 78.0058667,135.551733 78.0058667,130.565067" id="Fill-18" fill="#00C49A"></path>
                          <g id="Group-22" transform="translate(68.000000, 54.669333)">
                              <mask id="mask-ci4eqfartd-4" fill="white">
                                  <use xlink:href="#path-ci4eqfartd-3"></use>
                              </mask>
                              <g id="Clip-21"></g>
                              <line x1="0.952933333" y1="0.453466667" x2="0.952933333" y2="105.333467" id="Stroke-20" stroke="#FB9E66" mask="url(#mask-ci4eqfartd-4)"></line>
                          </g>
                      </g>
                  </g>
              </g>
          </svg>