<svg width="276px" height="275px" viewBox="0 0 276 275" version="1.1" xmlns="http://www.w3.org/2000/svg" xmlns:xlink="http://www.w3.org/1999/xlink">
        <g id="Page-1" stroke="none" stroke-width="1" fill="none" fill-rule="evenodd">
            <g id="Bespoke-training" transform="translate(92.000000, -5621.000000)" fill-rule="nonzero">
                <g id="Asset-4-Copy-3" transform="translate(45.958422, 5758.844828) rotate(-30.000000) translate(-45.958422, -5758.844828) translate(-55.041578, 5658.844828)">
                    <path d="M108.475862,3.65517241 L108.475862,3.65517241 C110.626379,0.910902565 114.104512,-0.438978859 117.543271,0.13606447 C120.982031,0.711107799 123.831747,3.11915819 124.972414,6.4137931 L124.972414,6.4137931 C125.931842,9.17861679 128.109117,11.3488465 130.877035,12.2993088 C133.644954,13.2497712 136.696169,12.8749276 139.151724,11.2827586 L139.151724,11.2827586 C142.074764,9.38307178 145.802516,9.23353637 148.868327,10.8929858 C151.934139,12.5524353 153.84733,15.7552769 153.855172,19.2413793 L153.855172,19.2413793 C153.863062,22.1679412 155.216956,24.9281463 157.526327,26.7258201 C159.835698,28.5234939 162.843728,29.1587226 165.682759,28.4482759 L165.682759,28.4482759 C169.063291,27.6009522 172.636592,28.6691282 174.997482,31.2327498 C177.358372,33.7963714 178.129221,37.4453814 177.006897,40.7448276 L177.006897,40.7448276 C176.062809,43.5162154 176.446832,46.5679031 178.048114,49.0189822 C179.649396,51.4700613 182.28971,53.0477217 185.206897,53.2965517 L185.206897,53.2965517 C188.680408,53.5922699 191.714282,55.7633986 193.114886,58.9557399 C194.51549,62.1480811 194.058663,65.8507152 191.924138,68.6068966 L191.924138,68.6068966 C190.132325,70.9220468 189.504795,73.9326228 190.222429,76.7708469 C190.940064,79.609071 192.923122,81.9595695 195.6,83.1448276 L195.6,83.1448276 C198.789045,84.5528946 200.953064,87.5918276 201.240662,91.0660105 C201.52826,94.5401934 199.893408,97.8936025 196.97931,99.8068966 L196.97931,99.8068966 C194.530712,101.411963 192.957871,104.055383 192.715402,106.973101 C192.472932,109.89082 193.587862,112.7576 195.737931,114.744828 L195.737931,114.744828 C198.296867,117.111794 199.357081,120.688315 198.501508,124.067469 C197.645935,127.446623 195.011482,130.087686 191.634483,130.951724 L191.634483,130.951724 C188.798075,131.677617 186.453628,133.668627 185.277913,136.350012 C184.102198,139.031396 184.226078,142.104702 185.613793,144.682759 L185.613793,144.682759 C187.26396,147.752352 187.104412,151.478392 185.197889,154.395689 C183.291366,157.312986 179.942807,158.954931 176.468966,158.675862 L176.468966,158.675862 C173.550266,158.441679 170.686233,159.564041 168.703758,161.718905 C166.721283,163.87377 165.841066,166.821244 166.317241,169.710345 L166.317241,169.710345 C166.891407,173.157609 165.531472,176.642455 162.774121,178.789619 C160.01677,180.936784 156.304932,181.401357 153.103448,180 L153.103448,180 C150.420114,178.830224 147.347745,178.960335 144.772917,180.352789 C142.19809,181.745242 140.407277,184.245116 139.917241,187.131034 L139.917241,187.131034 C139.319197,190.549756 136.907577,193.371879 133.623902,194.495619 C130.340227,195.61936 126.705184,194.866527 124.137931,192.531034 L124.137931,192.531034 C121.977918,190.556871 119.030283,189.685243 116.143987,190.167189 C113.257691,190.649136 110.753157,192.431155 109.351724,195 L109.351724,195 C107.683051,198.060623 104.47561,199.96508 100.989655,199.96508 C97.5037003,199.96508 94.2962589,198.060623 92.6275862,195 L92.6275862,195 C91.2261536,192.431155 88.7216189,190.649136 85.8353229,190.167189 C82.949027,189.685243 80.0013926,190.556871 77.8413793,192.531034 L77.8413793,192.531034 C75.2712422,194.886381 71.6190168,195.648035 68.3216703,194.516325 C65.0243238,193.384615 62.6096057,190.540673 62.0275862,187.103448 L62.0275862,187.103448 C61.5327919,184.221141 59.7394198,181.726747 57.1647692,180.339775 C54.5901186,178.952803 51.520512,178.827497 48.8413793,180 L48.8413793,180 C45.6450464,181.39102 41.9441447,180.924705 39.1927761,178.784273 C36.4414075,176.64384 35.079203,173.171302 35.6413793,169.731034 L35.6413793,169.731034 C36.1175544,166.841933 35.2373381,163.894459 33.254863,161.739595 C31.2723879,159.584731 28.4083544,158.462368 25.4896552,158.696552 L25.4896552,158.696552 C22.0076276,158.982032 18.6491009,157.336741 16.7404675,154.410458 C14.8318341,151.484175 14.6799609,147.747382 16.3448276,144.675862 L16.3448276,144.675862 C17.7328581,142.100659 17.8594262,139.030174 16.6880488,136.34947 C15.5166714,133.668766 13.1775108,131.675721 10.3448276,130.944828 L10.3448276,130.944828 C6.96221731,130.089916 4.31854934,127.452653 3.45543614,124.072126 C2.59232294,120.6916 3.64814156,117.109786 6.20689655,114.737931 L6.20689655,114.737931 C8.35696595,112.750704 9.47189574,109.883923 9.22942608,106.966205 C8.98695643,104.048487 7.41411523,101.405067 4.96551724,99.8 L4.96551724,99.8 C2.05564439,97.8839408 0.424221345,94.5319126 0.711653365,91.0597338 C0.999085385,87.587555 3.15949543,84.5494203 6.34482759,83.137931 L6.34482759,83.137931 C9.02170608,81.9526729 11.0047639,79.6021744 11.7223983,76.7639503 C12.4400328,73.9257262 11.8125029,70.9151502 10.0206897,68.6 L10.0206897,68.6 C7.88616437,65.8438187 7.42933787,62.1411846 8.82994166,58.9488433 C10.2305454,55.756502 13.2644192,53.5853734 16.737931,53.2896552 L16.737931,53.2896552 C19.6551174,53.0408252 22.2954316,51.4631648 23.8967135,49.0120856 C25.4979955,46.5610065 25.8820191,43.5093189 24.937931,40.737931 L24.937931,40.737931 C23.8118207,37.434214 24.5844816,33.7791269 26.9512715,31.2137855 C29.3180615,28.6484442 32.899212,27.5844762 36.2827586,28.4413793 L36.2827586,28.4413793 C39.1217888,29.151826 42.129819,28.5165974 44.4391902,26.7189236 C46.7485615,24.9212498 48.1024555,22.1610446 48.1103448,19.2344828 L48.1103448,19.2344828 C48.1181872,15.7483803 50.0313787,12.5455388 53.09719,10.8860893 C56.1630014,9.22663982 59.8907533,9.37617523 62.8137931,11.2758621 L62.8137931,11.2758621 C65.269348,12.8680311 68.3205633,13.2428746 71.088482,12.2924123 C73.8564006,11.34195 76.0336754,9.17172024 76.9931034,6.40689655 L76.9931034,6.40689655 C78.1337698,3.11226164 80.9834867,0.704211248 84.4222458,0.129167919 C87.8610049,-0.44587541 91.3391385,0.904006013 93.4896552,3.64827586 L93.4896552,3.64827586 C95.291001,5.95514777 98.0542183,7.30409741 100.981077,7.30544433 C103.907936,7.30679125 106.672394,5.96038541 108.475862,3.65517241 Z" id="Path" fill="#339989"></path>
                    <polygon id="Path" fill="#00C49A" points="47.1931034 58.5172414 44.3931034 62.0068966 42.6 60.5724138 49.8068966 51.6068966 51.5931034 53.0413793 48.8344828 56.4896552 58.1448276 64.0137931 56.5517241 66.0137931"></polygon>
                    <path d="M52.662069,48.8758621 L54.5862069,47.2758621 L58.0344828,51.4137931 C58.0259517,50.2762094 58.5331053,49.1959721 59.4137931,48.4758621 C61.4413793,46.7793103 63.6413793,47.7241379 64.9931034,49.3448276 L68.8758621,54 L66.8965517,55.5793103 L63.2137931,51.1655172 C62.4206897,50.2137931 61.4689655,49.5931034 60.3310345,50.5448276 C59.1931034,51.4965517 59.3655172,53.0206897 60.4413793,54.3103448 L63.7172414,58.2344828 L61.7931034,59.8344828 L52.662069,48.8758621 Z" id="Path" fill="#00C49A"></path>
                    <path d="M63.2,40.8068966 L65.4068966,39.4275862 L66.5931034,41.3793103 L64.3862069,42.7586207 L63.2,40.8068966 Z M65.4413793,44.337931 L67.5103448,43.0482759 L72.7862069,51.6482759 L70.7172414,52.937931 L65.4413793,44.337931 Z" id="Shape" fill="#00C49A"></path>
                    <path d="M70.9034483,41.0413793 L73.1724138,40.0689655 L73.6344828,41.1448276 C73.958233,40.0477457 74.7548649,39.1524832 75.8068966,38.7034483 C78.2344828,37.662069 80.0344828,39.2068966 80.8689655,41.1448276 L83.262069,46.7172414 L81,47.6896552 L78.7310345,42.4068966 C78.2068966,41.1931034 77.2137931,40.5724138 76.0551724,41.0758621 C74.7793103,41.6206897 74.2758621,42.6482759 74.9724138,44.262069 L77.1517241,49.337931 L74.8896552,50.3448276 L70.9034483,41.0413793 Z" id="Path" fill="#00C49A"></path>
                    <polygon id="Path" fill="#00C49A" points="82.2206897 32.2 84.6344828 31.6827586 86.3793103 39.8758621 89.2275862 34.9862069 92.3586207 34.2965517 89.4827586 38.9034483 94.8689655 44.137931 92.0206897 44.737931 88.1517241 40.7862069 86.9931034 42.7586207 87.6068966 45.6551724 85.1931034 46.1655172"></polygon>
                    <path d="M113.682759,37.2896552 L112.931034,44.9655172 L110.910345,44.7724138 L110.910345,42.7448276 C109.86803,44.0960864 108.178768,44.7812785 106.489655,44.537931 C101.813793,44.0758621 99.9517241,40.4551724 100.337931,36.5517241 C100.724138,32.6482759 103.213793,29.4413793 107.924138,29.9034483 C110.648011,30.0921691 112.961657,31.9673526 113.710345,34.5931034 L111.358621,35.2827586 C111.018307,33.4991153 109.496827,32.1831633 107.682759,32.1034483 C104.675862,31.8068966 103.151724,34.0413793 102.855172,36.6758621 C102.57931,39.4965517 103.648276,41.9241379 106.696552,42.2275862 C108.917241,42.4482759 110.6,41.3724138 110.910345,39.0689655 L107.786207,38.7655172 L107.986207,36.6965517 L113.682759,37.2896552 Z" id="Path" fill="#00C49A"></path>
                    <path d="M115.448276,43.8551724 L118.806897,32.062069 L121.17931,32.7517241 L118.006897,43.8965517 C117.875862,44.3517241 118.124138,44.6275862 118.6,44.7655172 C118.826236,44.826594 119.056784,44.8703982 119.289655,44.8965517 L118.696552,46.8965517 C118.081219,46.8508146 117.4716,46.7469024 116.875862,46.5862069 C115.758621,46.2413793 114.965517,45.5655172 115.448276,43.8551724 Z" id="Path" fill="#00C49A"></path>
                    <path d="M121.275862,42.2206897 C122.480059,39.6381123 125.546205,38.5159137 128.133012,39.7109968 C130.719819,40.9060799 131.852822,43.9682498 130.666867,46.5592548 C129.480913,49.1502599 126.422757,50.2940528 123.827586,49.1172414 C122.546912,48.5727538 121.547338,47.5244054 121.064435,46.2192626 C120.581532,44.9141198 120.658016,43.4676296 121.275862,42.2206897 Z M128.365517,45.4137931 C129.055172,43.9034483 128.965517,42.2827586 127.262069,41.5172414 C125.558621,40.7517241 124.296552,41.7586207 123.613793,43.2689655 C122.931034,44.7793103 123,46.4482759 124.696552,47.2137931 C126.393103,47.9793103 127.682759,46.8965517 128.365517,45.4137931 Z" id="Shape" fill="#00C49A"></path>
                    <path d="M132.413793,52.4827586 L131.827586,53.3103448 L129.758621,51.8275862 L138.034483,40.2 L140.103448,41.6827586 L137.089655,45.9103448 C138.142709,45.6532138 139.255531,45.8920386 140.110345,46.5586207 C142.42069,48.2068966 142.248276,51.0827586 140.613793,53.3724138 C138.97931,55.662069 136.324138,56.7655172 134.048276,55.1448276 C133.13404,54.545311 132.534789,53.5693164 132.413793,52.4827586 L132.413793,52.4827586 Z M138.62069,51.9310345 C139.593103,50.5517241 139.751724,49.0275862 138.372414,48.0482759 C136.993103,47.0689655 135.57931,47.6827586 134.593103,49.062069 C133.606897,50.4413793 133.510345,51.9517241 134.889655,52.9310345 C136.268966,53.9103448 137.655172,53.2965517 138.62069,51.9310345 Z" id="Shape" fill="#00C49A"></path>
                    <path d="M148.77931,60.2 L144.344828,64.4275862 L142.965517,62.9586207 L143.834483,61.9172414 C142.593394,62.0851585 141.350039,61.6250397 140.517241,60.6896552 C139.089655,59.1931034 138.848276,57.2413793 140.37931,55.7586207 C141.910345,54.2758621 143.703448,55.0137931 145.268966,56.6482759 L147.158621,58.6206897 C148.206897,57.5517241 148.358621,56.7862069 147.248276,55.6275862 C146.560092,54.9127391 145.536969,54.6298599 144.57931,54.8896552 L144.262069,52.5793103 C145.937526,52.2814689 147.648546,52.8648304 148.793103,54.1241379 C150.689655,56.1448276 150.565517,58.4965517 148.77931,60.2 Z M145.82069,59.937931 L145.875862,59.8827586 L144.075862,57.9931034 C143.303448,57.1793103 142.524138,57.2137931 142.062069,57.6551724 C141.6,58.0965517 141.606897,58.8275862 142.365517,59.6275862 C143.263733,60.6088903 144.761979,60.7434633 145.82069,59.937931 L145.82069,59.937931 Z" id="Shape" fill="#00C49A"></path>
                    <path d="M147.165517,64.9724138 L157.117241,57.8068966 L158.558621,59.8068966 L149.151724,66.5793103 C148.772414,66.8551724 148.786207,67.2275862 149.075862,67.6275862 C149.212773,67.8082981 149.36259,67.978859 149.524138,68.137931 L147.841379,69.3517241 C147.387522,68.9296572 146.972093,68.4680694 146.6,67.9724138 C145.924138,67.0344828 145.724138,66.0137931 147.165517,64.9724138 Z" id="Path" fill="#00C49A"></path>
                    <polygon id="Path" fill="#00C49A" points="154.772414 141.455172 157.572414 137.965517 159.365517 139.4 152.158621 148.365517 150.344828 146.937931 153.137931 143.455172 143.793103 135.951724 145.4 133.951724"></polygon>
                    <path d="M149.303448,151.089655 L147.37931,152.696552 L143.931034,148.558621 C143.941495,149.694676 143.433766,150.773601 142.551724,151.489655 C140.524138,153.186207 138.324138,152.241379 136.972414,150.62069 L133.103448,145.993103 L135.027586,144.393103 L138.710345,148.8 C139.510345,149.758621 140.455172,150.372414 141.593103,149.42069 C142.731034,148.468966 142.558621,146.951724 141.482759,145.662069 L138.206897,141.737931 L140.131034,140.131034 L149.303448,151.089655 Z" id="Path" fill="#00C49A"></path>
                    <path d="M136.551724,155.627586 L134.448276,156.917241 L129.172414,148.317241 L131.241379,147.027586 L136.551724,155.627586 Z M138.786207,159.158621 L136.586207,160.537931 L135.393103,158.6 L137.6,157.22069 L138.786207,159.158621 Z" id="Shape" fill="#00C49A"></path>
                    <path d="M131.034483,158.924138 L128.765517,159.896552 L128.303448,158.82069 C127.98232,159.919226 127.184815,160.815469 126.131034,161.262069 C123.703448,162.310345 121.903448,160.758621 121.068966,158.82069 L118.675862,153.248276 L120.944828,152.275862 L123.213793,157.558621 C123.731034,158.772414 124.724138,159.393103 125.882759,158.896552 C127.158621,158.351724 127.662069,157.317241 126.965517,155.703448 L124.827586,150.627586 L127.089655,149.655172 L131.034483,158.924138 Z" id="Path" fill="#00C49A"></path>
                    <polygon id="Path" fill="#00C49A" points="119.744828 167.765517 117.331034 168.282759 115.586207 160.089655 112.737931 164.986207 109.606897 165.675862 112.482759 161.062069 107.096552 155.889655 109.944828 155.282759 113.813793 159.241379 114.97931 157.234483 114.358621 154.337931 116.772414 153.827586"></polygon>
                    <path d="M88.2758621,162.675862 L89.0275862,155 L91.0344828,155.172414 L91.0344828,157.193103 C92.0743519,155.843165 93.7622289,155.160102 95.4482759,155.406897 C100.124138,155.862069 101.986207,159.489655 101.606897,163.386207 C101.227586,167.282759 98.7241379,170.503448 94.0206897,170.041379 C91.2968163,169.852658 88.9831708,167.977475 88.2344828,165.351724 L90.5862069,164.627586 C90.9241951,166.41257 92.44701,167.729676 94.262069,167.806897 C97.2689655,168.103448 98.7931034,165.868966 99.0896552,163.241379 C99.3655172,160.413793 98.2965517,157.986207 95.2551724,157.682759 C93.0275862,157.468966 91.3448276,158.537931 91.0344828,160.841379 L94.1586207,161.151724 L93.9586207,163.22069 L88.2758621,162.675862 Z" id="Path" fill="#00C49A"></path>
                    <path d="M86.5172414,156.110345 L83.1586207,167.903448 L80.7862069,167.213793 L83.9586207,156.075862 C84.0896552,155.613793 83.8482759,155.337931 83.3655172,155.2 C83.1381837,155.145521 82.9079235,155.104074 82.6758621,155.075862 L83.2413793,153.082759 C83.8563152,153.131714 84.4656396,153.235577 85.062069,153.393103 C86.2068966,153.724138 87,154.4 86.5172414,156.110345 Z" id="Path" fill="#00C49A"></path>
                    <path d="M80.6896552,157.751724 C79.4723548,160.32152 76.4089516,161.426794 73.8313021,160.226214 C71.2536525,159.025634 70.1284999,155.969476 71.312308,153.384082 C72.4961162,150.798687 75.5448999,149.653703 78.137931,150.82069 C79.4250458,151.367692 80.4289771,152.422163 80.9121525,153.734572 C81.395328,155.046981 81.3148109,156.500702 80.6896552,157.751724 L80.6896552,157.751724 Z M73.6,154.558621 C72.9103448,156.068966 73,157.689655 74.7034483,158.455172 C76.4068966,159.22069 77.6758621,158.206897 78.3517241,156.696552 C79.0275862,155.186207 78.9655172,153.517241 77.2689655,152.751724 C75.5724138,151.986207 74.2827586,153.048276 73.6,154.558621 Z" id="Shape" fill="#00C49A"></path>
                    <path d="M69.5241379,147.482759 L70.1172414,146.662069 L72.1862069,148.137931 L63.9103448,159.765517 L61.8413793,158.289655 L64.8275862,154.055172 C63.7745791,154.315468 62.6603695,154.076345 61.8068966,153.406897 C59.4965517,151.758621 59.6758621,148.882759 61.3034483,146.593103 C62.9310345,144.303448 65.5931034,143.2 67.8689655,144.827586 C68.7921885,145.418422 69.400152,146.393697 69.5241379,147.482759 Z M63.3172414,148.034483 C62.3448276,149.413793 62.1862069,150.937931 63.5655172,151.924138 C64.9448276,152.910345 66.3241379,152.289655 67.3448276,150.903448 C68.3655172,149.517241 68.4275862,148.02069 67.0482759,147.034483 C65.6689655,146.048276 64.3103448,146.668966 63.337931,148.034483 L63.3172414,148.034483 Z" id="Shape" fill="#00C49A"></path>
                    <path d="M53.1862069,139.765517 L57.6206897,135.537931 L59,137.006897 L58.1310345,138.048276 C59.3624465,137.887777 60.5942828,138.341341 61.4275862,139.262069 C62.8551724,140.758621 63.0965517,142.710345 61.5655172,144.2 C60.0344828,145.689655 58.2413793,144.944828 56.6758621,143.303448 L54.7862069,141.324138 C53.737931,142.393103 53.5862069,143.151724 54.6965517,144.317241 C55.3861994,145.029616 56.4091182,145.309795 57.3655172,145.048276 L57.6827586,147.358621 C56.006993,147.660526 54.2940426,147.076507 53.1517241,145.813793 C51.2758621,143.827586 51.4,141.468966 53.1862069,139.765517 Z M56.1448276,140.027586 L56.0896552,140.089655 L57.8896552,141.972414 C58.662069,142.786207 59.4413793,142.751724 59.9034483,142.317241 C60.3655172,141.882759 60.3586207,141.137931 59.6,140.337931 C58.709354,139.34795 57.2104099,139.201347 56.1448276,140 L56.1448276,140.027586 Z" id="Shape" fill="#00C49A"></path>
                    <path d="M54.8,135 L44.8275862,142.165517 L43.3862069,140.165517 L52.7931034,133.393103 C53.1793103,133.117241 53.1586207,132.744828 52.8689655,132.337931 C52.730273,132.158681 52.5805583,131.988236 52.4206897,131.827586 L54.1034483,130.613793 C54.5570478,131.036114 54.9724553,131.497678 55.3448276,131.993103 C56.0413793,132.931034 56.2413793,133.958621 54.8,135 Z" id="Path" fill="#00C49A"></path>
                    <path d="M98.537931,92.6344828 L100.986207,67.937931 L103.448276,92.6344828 C103.70572,95.231074 105.76167,97.2841363 108.358621,97.537931 L133.048276,99.9862069 L108.358621,102.427586 C105.759341,102.681939 103.702629,104.738652 103.448276,107.337931 L101.006897,132.027586 L98.5586207,107.337931 C98.3042676,104.738652 96.2475553,102.681939 93.6482759,102.427586 L68.9655172,100 L93.6551724,97.5517241 C96.2460264,97.2844731 98.288919,95.2271533 98.537931,92.6344828 Z" id="Path" fill="#00C49A"></path>
                </g>
            </g>
        </g>
    </svg>