<svg width="237px" height="258px" viewBox="0 0 237 258" version="1.1" xmlns="http://www.w3.org/2000/svg" xmlns:xlink="http://www.w3.org/1999/xlink">
        <g id="Page-1" stroke="none" stroke-width="1" fill="none" fill-rule="evenodd">
            <g id="Bespoke-training" transform="translate(-149.000000, -6702.000000)" fill-rule="nonzero">
                <g id="Asset-1-Copy-2" transform="translate(267.366667, 6831.000000) rotate(-30.000000) translate(-267.366667, -6831.000000) translate(192.000000, 6726.000000)">
                    <path d="M93.5853333,209.706 L57.0173333,209.706 L22.0546667,174.743333 C9.72135947,162.401867 2.05052397,146.164633 0.35,128.8 C0.116666667,126.345333 -0.000750296165,123.9 -0.000750296165,121.496667 L-0.000750296165,79.576 C-0.0974102227,63.3903247 9.29733171,48.6490708 24.01,41.902 C32.2431697,38.0466413 41.5134522,36.9974847 50.4,38.9153333 L50.4,23.982 C46.4994361,20.6389769 44.2543702,15.7584728 44.254,10.6213333 L44.254,0 L106.353333,0 L106.353333,10.6213333 C106.360105,15.7630236 104.116082,20.6500821 100.212,23.996 L100.212,38.9293333 C112.503551,36.2845554 125.332018,39.335045 135.117433,47.2295193 C144.902848,55.1239935 150.597421,67.0171379 150.612,79.59 L150.612,121.510667 C150.612,123.914 150.495333,126.359333 150.262,128.781333 C148.564648,146.156359 140.893904,162.404943 128.557333,174.757333 L93.5853333,209.706 Z M64.1853333,192.439333 L86.45,192.439333 L116.358667,162.535333 C125.86436,153.019687 131.775385,140.501642 133.084,127.115333 C133.261333,125.248667 133.354667,123.354 133.354667,121.515333 L133.354667,97.272 L123.872,92.5306667 L123.872,89.6793333 C121.688644,86.357328 119.171088,83.2674576 116.358667,80.458 L116.358667,80.458 C110.381382,74.4390491 103.14618,69.8174445 95.172,66.9246667 L87.7753333,64.2413333 L82.992,67.256 L82.992,62.5333333 L76.9626667,60.3493333 L82.9826667,57.134 L82.9826667,50.7453333 L82.9826667,17.2666667 L67.6666667,17.2666667 L67.6666667,56.7513333 L74.3446667,60.088 L67.6666667,62.5333333 L67.6666667,67.2933333 L62.8553333,64.26 L55.4633333,66.9433333 C42.9584964,71.5131148 32.3953442,80.2268095 25.5313333,91.6346667 L17.2666667,105.406 L17.2666667,121.496667 C17.2666667,123.363333 17.3553333,125.23 17.5373333,127.134 C18.8501371,140.513713 24.7608541,153.024511 34.2626667,162.535333 L64.1853333,192.439333 Z" id="Shape" fill="#F85E00"></path>
                    <path d="M122.948,49.728 C114.329802,45.656413 104.361281,45.5609226 95.6666667,49.4666667 C94.2611041,50.100963 92.9013765,50.8322844 91.5973333,51.6553333 C91.5973333,50.722 91.5973333,50.722 91.5973333,50.722 L91.5973333,19.1333333 C95.2550412,17.9061233 97.7198593,14.479425 97.72,10.6213333 L97.72,10.6213333 L97.72,8.63333333 L52.8873333,8.63333333 L52.8873333,10.6213333 C52.8894892,14.4831336 55.3607606,17.9109656 59.024,19.1333333 L59.024,51.6366667 C57.7199569,50.8136178 56.3602292,50.0822964 54.9546667,49.448 C44.7599263,44.9328132 32.9738124,45.8761583 23.627038,51.9554224 C14.2802636,58.0346865 8.63931604,68.4261297 8.63333333,79.576 L8.63333333,121.496667 C8.63333333,123.648 8.736,125.804 8.94133333,127.950667 L8.94133333,127.950667 C10.4166129,143.336727 17.2128092,157.726245 28.1586667,168.639333 L49.3593333,189.84 L60.5966667,201.072667 L89.9966667,201.072667 L101.266667,189.84 L122.467333,168.639333 C133.413191,157.726245 140.209387,143.336727 141.684667,127.950667 L141.684667,127.950667 C141.885333,125.804 141.993205,123.648 141.993205,121.496667 L141.993205,79.576 C142.066116,66.7473131 134.613267,55.0667399 122.948,49.728 Z M28.1586667,74.3493333 C24.2974854,78.204233 20.9246531,82.5190134 18.116,87.1966667 L18.116,79.576 C18.1194634,71.3596256 22.4212336,63.7438661 29.4563348,59.49932 C36.491436,55.254774 45.234443,55.0001197 52.5046667,58.828 L52.5046667,58.828 C43.3491228,62.1534469 35.0373255,67.4524766 28.1586667,74.3493333 L28.1586667,74.3493333 Z M122.425333,74.3493333 C115.545324,67.4519024 107.231879,62.1528377 98.0746667,58.828 L98.0746667,58.828 C105.345519,55.0007597 114.088629,55.2556119 121.124206,59.4998692 C128.159783,63.7441264 132.462691,71.3593683 132.468,79.576 L132.468,87.1966667 L132.468,87.1966667 C129.665093,82.5213422 126.30028,78.2067961 122.448667,74.3493333 L122.425333,74.3493333 Z" id="Shape" fill="#FB9E66"></path>
                    <path d="M45.0753333,107.622667 C48.188,107.328667 49.8913333,106.26 51.6413333,103.39 L52.906,101.444 L53.732,101.444 C52.6166667,104.995333 50.7173333,113.073333 50.0873333,116.573333 L49.2566667,116.573333 L49.014,114.534 C48.5473333,110.800667 47.6513333,109.326 44.7346667,108.985333 C41.9346667,120.129333 42.448,120.372 44.1466667,120.712667 L46.7786667,121.1 L46.4846667,122.5 L29.358,122.5 L29.6986667,121.1 L31.6446667,120.661333 C33.0073333,120.418667 33.25,119.396667 35.8446667,108.994667 C39.2,95.564 39.004,95.1766667 37.8886667,94.9946667 L36.3626667,94.7333333 L36.7033333,93.3333333 L60.0086667,93.3333333 C59.234,96.6 58.2586667,100.874667 57.5773333,104.911333 L56.3126667,104.911333 L55.4353333,101.019333 C54.502,96.8193333 52.6633333,95.1813333 48.4353333,94.8406667 C47.852,96.2406667 47.2173333,98.8773333 45.3693333,106.47 C45.2666667,106.866667 45.1686667,107.235333 45.0753333,107.622667 Z" id="Path" fill="#F85E00"></path>
                    <path d="M62.5893333,94.9713333 L61.1893333,94.7286667 L61.53,93.3286667 L76.2766667,93.3286667 L75.936,94.7286667 L74.3773333,94.9713333 C73.0613333,95.1673333 72.674,96.1893333 69.902,107.282 C66.7846667,119.882 66.7846667,120.563333 67.956,120.815333 L69.356,121.104667 L69.0153333,122.504667 L54.2686667,122.504667 L54.558,121.104667 L56.2146667,120.764 C57.526,120.474667 57.82,119.499333 60.592,108.551333 C63.756,95.8953333 63.756,95.2 62.5893333,94.9713333 Z" id="Path" fill="#F85E00"></path>
                    <path d="M69.79,122.509333 L70.1306667,121.109333 L71.8806667,120.722 C73.2806667,120.381333 73.486,119.406 75.9686667,109.48 C79.4686667,95.564 79.1793333,95.2233333 78.0126667,94.9806667 L76.6126667,94.738 L77.0046667,93.338 L91.8446667,93.338 L91.504,94.738 L89.8986667,94.9806667 C88.5826667,95.1766667 88.242,96.1986667 85.47,107.291333 C83.0853333,116.923333 82.502,119.555333 82.3573333,120.964667 C85.568,119.7 87.6586667,117.231333 90.9673333,112.984667 L94.374,108.215333 L95.6666667,108.266667 C93.8,113.274 92.0686667,118.435333 90.9486667,122.518667 L69.79,122.509333 Z" id="Path" fill="#F85E00"></path>
                    <path d="M92.6566667,122.509333 L92.9973333,121.109333 L94.7473333,120.722 C96.1473333,120.381333 96.3526667,119.406 98.8353333,109.48 C102.335333,95.564 102.046,95.2233333 100.879333,94.9806667 L99.4793333,94.738 L99.8713333,93.338 L114.711333,93.338 L114.370667,94.738 L112.765333,94.9806667 C111.449333,95.1766667 111.108667,96.1986667 108.336667,107.291333 C105.952,116.923333 105.368667,119.555333 105.224,120.964667 C108.434667,119.7 110.525333,117.231333 113.834,112.984667 L117.240667,108.215333 L118.533333,108.266667 C116.666667,113.274 114.935333,118.435333 113.815333,122.518667 L92.6566667,122.509333 Z" id="Path" fill="#F85E00"></path>
                    <path d="M58.45,138.105333 L57.05,137.862667 L57.3906667,136.462667 L72.1326667,136.462667 L71.792,137.862667 L70.238,138.105333 C68.922,138.301333 68.5346667,139.323333 65.758,150.416 C62.6453333,163.016 62.6453333,163.697333 63.812,163.949333 L65.212,164.243333 L64.8713333,165.643333 L50.134,165.643333 L50.4233333,164.243333 L52.08,163.902667 C53.3913333,163.608667 53.6853333,162.638 56.4573333,151.69 C59.6213333,139.029333 59.6213333,138.348 58.45,138.105333 Z" id="Path" fill="#F85E00"></path>
                    <path d="M89.6,166.324667 C87.024,161.658 80.2666667,148.124667 77.3873333,143.019333 C77.0793939,142.44908 76.7381364,141.897459 76.3653333,141.367333 C72.52,158.396 75.9266667,161.849333 80.2573333,163.114 L84.0513333,164.234 L83.762,165.634 L65.702,165.634 L66.0426667,164.234 L67.0646667,163.893333 C69.3513333,163.114 70.0793333,161.364 75.3853333,140.004667 C74.8628465,139.209828 74.091451,138.610766 73.192,138.301333 L71.9273333,137.811333 L72.268,136.448667 L86.2353333,136.448667 C88.0690123,141.864943 90.4128655,147.094861 93.2353333,152.068 C95.914,139.934667 94.304,139.080667 92.456,138.534667 L90.1693333,137.853333 L90.4633333,136.453333 L101.798667,136.453333 L101.509333,137.853333 L100.436,138.194 C98.9286667,138.660667 97.636,140.088667 93.478,156.73 C92.652,159.940667 91.532,164.808 91.2893333,166.315333 L89.6,166.324667 Z" id="Path" fill="#F85E00"></path>
                </g>
            </g>
        </g>
    </svg>