<svg width="204px" height="234px" viewBox="0 0 204 234" version="1.1" xmlns="http://www.w3.org/2000/svg" xmlns:xlink="http://www.w3.org/1999/xlink">
        <g id="Page-1" stroke="none" stroke-width="1" fill="none" fill-rule="evenodd">
            <g id="Bespoke-training" transform="translate(-1222.000000, -6789.000000)" fill-rule="nonzero">
                <g id="Asset-6-Copy-2" transform="translate(1324.333333, 6906.000000) rotate(20.000000) translate(-1324.333333, -6906.000000) translate(1252.000000, 6808.000000)">
                    <path d="M132.416673,115.879167 C132.416673,126.349565 123.928732,134.8375 113.458327,134.8375 C111.347863,134.83985 109.260677,134.396572 107.333333,133.536667 L107.333333,183.866667 L37.0533333,183.866667 L37.0533333,133.5425 C35.1213107,134.399997 33.0304307,134.841228 30.9166667,134.8375 C20.4462683,134.8375 11.9583269,126.349565 11.9583269,115.879167 C11.9536898,109.59183 14.4480701,103.560418 18.8922479,99.1129575 C23.3364258,94.6654974 29.3659954,92.1666667 35.6533333,92.1666667 L108.7275,92.1666667 C115.013827,92.1682125 121.041898,94.6677281 125.484814,99.1150203 C129.92773,103.562313 132.42131,109.592841 132.416673,115.879167 Z" id="Path" fill="#339989"></path>
                    <path d="M119.285833,195.825 L25.0833333,195.825 L25.0833333,146.241667 C10.5361626,143.423255 0.0224963824,130.696829 0,115.879167 C0.0225023084,96.1977027 15.9718693,80.2483356 35.6533333,80.2258333 L108.7275,80.2258333 C128.408964,80.2483356 144.358331,96.1977027 144.380833,115.879167 C144.361125,130.699025 133.846822,143.428667 119.2975,146.2475 L119.285833,195.825 Z M49,171.908333 L95.3575,171.908333 L95.3575,115.085833 L112.198333,122.616667 C112.59259,122.793516 113.020413,122.883061 113.4525,122.879167 C117.318493,122.879167 120.4525,119.74516 120.4525,115.879167 C120.446069,109.39985 115.19515,104.148931 108.715833,104.1425 L35.6533333,104.1425 C29.174017,104.148931 23.9230978,109.39985 23.9166667,115.879167 C23.9166667,119.74516 27.0506734,122.879167 30.9166667,122.879167 C31.358781,122.883228 31.7965513,122.791694 32.2,122.610833 L49,115.15 L49,171.908333 Z" id="Shape" fill="#339989"></path>
                    <path d="M51.7183333,11.6666667 L51.7183333,41.6266667 L48.9241667,41.6266667 L48.9241667,15.4816667 L39.0833333,39.165 L36.2191667,39.165 L26.3608333,15.4408333 L26.3608333,41.6266667 L23.5666667,41.6266667 L23.5666667,11.6666667 L27.5916667,11.6666667 L37.6658333,35.9216667 L47.7108333,11.6666667 L51.7183333,11.6666667 M63.385,0 L39.9175,0 L37.6541667,5.47166667 L35.3791667,0 L11.9,0 L11.9,53.2933333 L63.385,53.2933333 L63.385,0 L63.385,0 Z" id="Shape" fill="#339989"></path>
                    <path d="M76.5041667,20.4458333 L76.5041667,41.6266667 L73.7275,41.6266667 L73.7275,38.0216667 C72.4579123,40.5039324 69.8700081,42.0307732 67.0833333,41.9416667 C62.125,41.9416667 59.8325,38.4416667 59.7508333,33.845 L59.7508333,20.4283333 L62.5275,20.4283333 L62.5275,33.2091667 C62.5275,37.065 64.3533333,39.3341667 67.83,39.3341667 C71.3066667,39.3341667 73.7216667,37.0883333 73.7216667,32.9525 L73.7216667,20.4458333 L76.4983333,20.4458333 M88.165,8.77916667 L48.09,8.77916667 L48.09,34.0608333 C48.1833333,39.1066667 49.7466667,43.5983333 52.6108333,47.0516667 C55.0445295,49.9921772 58.3564668,52.0754267 62.0608333,52.9958333 L62.0608333,53.2933333 L63.4375,53.2933333 C64.6431102,53.5053637 65.865056,53.6107712 67.0891667,53.6083747 C68.2784421,53.609881 69.4654465,53.5044563 70.6358333,53.2933333 L88.1708333,53.2933333 L88.1708333,8.77916667 L88.165,8.77916667 Z" id="Shape" fill="#339989"></path>
                    <path d="M91.6883333,20.1075 C95.5441667,20.1075 98.6416667,22.12 100.210833,25.9408333 L97.5391667,26.9791667 C96.5416667,24.3308333 94.4008333,22.6741667 91.7058333,22.6741667 C87.1441667,22.6741667 85.0441667,26.7575 85.0441667,31.0741667 C85.0441667,35.3908333 87.1441667,39.4041667 91.7233333,39.4041667 C94.3797256,39.4548827 96.7347941,37.7041699 97.4516667,35.1458333 L100.0125,36.12 C98.8700869,39.6929078 95.4958231,42.0741807 91.7466667,41.9533333 C85.6625,41.9533333 82.2033333,37.0766667 82.2033333,31.08 C82.2033333,25.5208333 85.3416667,20.1191667 91.7058333,20.1191667 M91.7058333,8.4525 C79.6366667,8.4525 70.5366667,18.1766667 70.5366667,31.08 C70.4558552,36.562814 72.2782013,41.9041022 75.6933333,46.1941667 C80.3896963,51.9720482 87.8472275,54.7528619 95.1799962,53.4604826 C102.512765,52.1681033 108.570258,47.0053058 111.008333,39.97 L113.341667,33.3491667 L115.5,32.4975 L114.473333,30.0125 L114.741667,29.2483333 L114.053333,28.9858333 L110.973333,21.5016667 C107.613333,13.335 100.391667,8.44083333 91.665,8.44083333 L91.7058333,8.4525 Z" id="Shape" fill="#339989"></path>
                    <path d="M108.348333,11.6666667 L108.348333,24.0508333 C109.599724,21.5709994 112.169083,20.0352902 114.945833,20.1075 C119.886667,20.1075 122.260833,23.6075 122.3425,28.2041667 L122.3425,41.6208333 L119.501667,41.6208333 L119.501667,28.8633333 C119.501667,25.0891667 118.02,22.6683333 114.31,22.6683333 C110.6,22.6683333 108.348333,25.4916667 108.348333,29.54 L108.348333,41.6266667 L105.5075,41.6266667 L105.5075,11.6666667 L108.348333,11.6666667 M120.015,0 L93.8408333,0 L93.8408333,53.2933333 L134.009167,53.2933333 L134.009167,28 C133.915833,22.9308333 132.3175,18.4158333 129.395,14.9391667 C126.959246,12.0570704 123.677113,10.0159429 120.015,9.10583333 L120.015,0 L120.015,0 Z" id="Shape" fill="#339989"></path>
                    <path d="M59.4066667,57.7033333 L53.2175,78.8841667 L50.5633333,78.8841667 L44.7766667,61.565 L38.99,78.8841667 L36.3358333,78.8841667 L30.17,57.7033333 L33.18,57.7033333 L37.8466667,74.6666667 L43.5283333,57.7033333 L46.0833333,57.7033333 L51.7416667,74.62 L56.4083333,57.7033333 L59.4183333,57.7033333 M74.9816667,46.0366667 L14.6183333,46.0366667 L18.97,60.97 L25.1358333,82.1508333 L27.5858333,90.5508333 L61.9616667,90.5508333 L64.4116667,82.1566667 L70.5833333,60.9758333 L74.9466667,46.0366667 L74.9816667,46.0366667 Z" id="Shape" fill="#339989"></path>
                    <path d="M72.1466667,57.365 C78.19,57.365 82.4541667,62.2008333 82.4541667,68.2441667 C82.4541667,74.2875 78.19,79.205 72.1466667,79.205 C66.1033333,79.205 61.9266667,74.3458333 61.9266667,68.2441667 C61.9266667,62.1425 66.1266667,57.365 72.1466667,57.365 M72.1466667,76.7666667 C76.7725,76.7666667 79.5491667,72.9283333 79.5491667,68.2441667 C79.5491667,63.56 76.7725,59.8266667 72.1466667,59.8266667 C67.5208333,59.8266667 64.8316667,63.5833333 64.8316667,68.25 C64.8316667,72.9166667 67.5675,76.7725 72.1466667,76.7725 M72.1466667,45.7041667 C59.8966667,45.7041667 50.26,55.6208333 50.26,68.25 C50.26,80.8791667 59.8733333,90.8775 72.1466667,90.8775 C84.42,90.8775 94.1208333,80.9608333 94.1208333,68.25 C94.1208333,55.5391667 84.4666667,45.6983333 72.1466667,45.6983333 L72.1466667,45.7041667 Z" id="Shape" fill="#339989"></path>
                    <path d="M114.2575,57.7033333 L108.0625,78.8841667 L105.414167,78.8841667 L99.6275,61.565 L93.8408333,78.8841667 L91.1866667,78.8841667 L85.0208333,57.7033333 L88.0308333,57.7033333 L92.6975,74.6666667 L98.3791667,57.7033333 L100.916667,57.7033333 L106.580833,74.62 L111.2475,57.7033333 L114.2575,57.7033333 M129.820833,46.0366667 L69.4691667,46.0366667 L73.815,60.97 L79.9866667,82.1508333 L82.4366667,90.5508333 L116.806667,90.5508333 L119.2625,82.1566667 L125.451667,60.9758333 L129.820833,46.0366667 L129.820833,46.0366667 Z" id="Shape" fill="#339989"></path>
                    <path d="M113.475833,136.004167 C104.455182,136.004167 97.1425,128.691484 97.1425,119.670833 C97.1521407,112.329443 103.10111,106.380474 110.4425,106.370833 C113.329382,106.369286 116.098639,107.514611 118.141066,109.554851 C120.183494,111.59509 121.331787,114.363118 121.333333,117.25 L119,117.25 C118.996783,112.534822 115.175178,108.713217 110.46,108.71 C104.405943,108.71643 99.4997636,113.622609 99.4933333,119.676667 C99.4933333,127.408653 105.761347,133.676667 113.493333,133.676667 C123.315401,133.66702 131.275353,125.707068 131.285,115.885 C131.285,103.432336 121.19183,93.3365544 108.739167,93.3333333 L35.665,93.3333333 C23.2282762,93.3461945 13.1495278,103.424943 13.1366667,115.861667 C13.1366535,125.686019 21.0923277,133.654744 30.9166667,133.670833 C38.6486532,133.670833 44.9166667,127.40282 44.9166667,119.670833 C44.9102364,113.616776 40.0040573,108.710597 33.95,108.704167 C29.2371022,108.713818 25.4216568,112.537092 25.4216667,117.25 L23.0883333,117.25 C23.0947567,111.249763 27.9556008,106.38631 33.9558333,106.376667 C41.2940018,106.386307 47.2403593,112.332665 47.25,119.670833 C47.25,128.691484 39.9373176,136.004167 30.9166667,136.004167 C19.8082134,135.991303 10.8071437,126.987623 10.7975,115.879167 C10.8039309,102.146002 21.9318394,91.0128723 35.665,91 L108.739167,91 C122.463213,91.0257291 133.576925,102.155097 133.583333,115.879167 C133.570498,126.981747 124.578399,135.981673 113.475833,136.004167 Z" id="Path" fill="#FB9E66"></path>
                    <rect id="Rectangle" fill="#FB9E66" x="44.4091667" y="112.344167" width="55.7725" height="2.33333333"></rect>
                    <rect id="Rectangle" fill="#FB9E66" x="53.4683333" y="113.510833" width="2.33333333" height="70.3558333"></rect>
                    <rect id="Rectangle" fill="#FB9E66" x="88.6025" y="113.510833" width="2.33333333" height="70.3558333"></rect>
                    <rect id="Rectangle" fill="#FB9E66" x="71.0325" y="113.510833" width="2.33333333" height="70.3558333"></rect>
                    <polygon id="Path" fill="#FB9E66" points="108.505833 185.033333 35.8983333 185.033333 35.8983333 134.8375 38.2316667 134.8375 38.2316667 182.7 106.1725 182.7 106.1725 134.8375 108.505833 134.8375"></polygon>
                    <polygon id="Path" fill="#FB9E66" points="51.7183333 11.6666667 51.7183333 41.6266667 48.9241667 41.6266667 48.9241667 15.4816667 39.0833333 39.165 36.2191667 39.165 26.3608333 15.4408333 26.3608333 41.6266667 23.5666667 41.6266667 23.5666667 11.6666667 27.5916667 11.6666667 37.6658333 35.9216667 47.7108333 11.6666667"></polygon>
                    <path d="M59.7566667,33.8333333 L59.7566667,20.4166667 L62.5333333,20.4166667 L62.5333333,33.2091667 C62.5333333,37.065 64.3591667,39.3341667 67.8358333,39.3341667 C71.3125,39.3341667 73.7275,37.0883333 73.7275,32.9525 L73.7275,20.4458333 L76.5041667,20.4458333 L76.5041667,41.6266667 L73.7275,41.6266667 L73.7275,38.0216667 C72.4579123,40.5039324 69.8700081,42.0307732 67.0833333,41.9416667 C62.1308333,41.9416667 59.8383333,38.4241667 59.7566667,33.8333333 Z" id="Path" fill="#FB9E66"></path>
                    <path d="M82.1858333,31.0683333 C82.1858333,25.5091667 85.3241667,20.1075 91.6883333,20.1075 C95.5441667,20.1075 98.6416667,22.12 100.210833,25.9408333 L97.5391667,26.9791667 C96.5416667,24.3308333 94.4008333,22.6741667 91.7058333,22.6741667 C87.1441667,22.6741667 85.0441667,26.7575 85.0441667,31.0741667 C85.0441667,35.3908333 87.1441667,39.4041667 91.7233333,39.4041667 C94.3797256,39.4548827 96.7347941,37.7041699 97.4516667,35.1458333 L100.0125,36.12 C98.8700869,39.6929078 95.4958231,42.0741807 91.7466667,41.9533333 C85.645,41.9416667 82.1858333,37.065 82.1858333,31.0683333 Z" id="Path" fill="#FB9E66"></path>
                    <path d="M105.5075,11.6666667 L108.348333,11.6666667 L108.348333,24.0508333 C109.599724,21.5709994 112.169083,20.0352902 114.945833,20.1075 C119.886667,20.1075 122.260833,23.6075 122.3425,28.2041667 L122.3425,41.6208333 L119.501667,41.6208333 L119.501667,28.8633333 C119.501667,25.0891667 118.02,22.6683333 114.31,22.6683333 C110.6,22.6683333 108.348333,25.4916667 108.348333,29.54 L108.348333,41.6266667 L105.5075,41.6266667 L105.5075,11.6666667 Z" id="Path" fill="#FB9E66"></path>
                    <polygon id="Path" fill="#FB9E66" points="30.17 57.7033333 33.18 57.7033333 37.8466667 74.6666667 43.5283333 57.7033333 46.0833333 57.7033333 51.7416667 74.62 56.4083333 57.7033333 59.4183333 57.7033333 53.2175 78.8841667 50.5633333 78.8841667 44.7766667 61.565 38.99 78.8841667 36.3358333 78.8841667"></polygon>
                    <path d="M61.9266667,68.25 C61.9266667,62.2066667 66.1266667,57.3708333 72.1466667,57.3708333 C78.1666667,57.3708333 82.4541667,62.2066667 82.4541667,68.25 C82.4541667,74.2933333 78.19,79.2108333 72.1466667,79.2108333 C66.1033333,79.2108333 61.9266667,74.3458333 61.9266667,68.25 Z M79.5491667,68.25 C79.5491667,63.5833333 76.7725,59.8325 72.1466667,59.8325 C67.5208333,59.8325 64.8316667,63.5833333 64.8316667,68.25 C64.8316667,72.9166667 67.5675,76.7725 72.1466667,76.7725 C76.7258333,76.7725 79.5491667,72.9166667 79.5491667,68.25 Z" id="Shape" fill="#FB9E66"></path>
                    <polygon id="Path" fill="#FB9E66" points="85.0208333 57.7033333 88.0308333 57.7033333 92.6975 74.6666667 98.3791667 57.7033333 100.916667 57.7033333 106.580833 74.62 111.2475 57.7033333 114.2575 57.7033333 108.0625 78.8841667 105.414167 78.8841667 99.6275 61.565 93.8408333 78.8841667 91.1866667 78.8841667"></polygon>
                </g>
            </g>
        </g>
    </svg>